<svg xmlns="http://www.w3.org/2000/svg" version="1.1" xmlns:xlink="http://www.w3.org/1999/xlink" viewBox="0 0 200 200"><rect width="200" height="200" fill="url('#gradient')"></rect><defs><linearGradient id="gradient" gradientTransform="rotate(204 0.5 0.5)"><stop offset="0%" stop-color="#edf90a"></stop><stop offset="100%" stop-color="#b1b479"></stop></linearGradient></defs><g><g fill="#366da5" transform="matrix(2.9280708819975834,0,0,2.9280708819975834,27.030598588442075,120.80831773399203)" stroke="#0e5278" stroke-width="1.3"><path d="M9.17-4.81L12.58-4.81Q12.51-3.33 11.78-2.19Q11.04-1.05 9.72-0.43Q8.40 0.20 6.70 0.20L6.70 0.20Q3.90 0.20 2.29-1.63Q0.67-3.46 0.67-6.79L0.67-6.79L0.67-7.49Q0.67-9.58 1.40-11.15Q2.13-12.71 3.50-13.57Q4.86-14.42 6.66-14.42L6.66-14.42Q9.25-14.42 10.82-13.06Q12.39-11.70 12.61-9.31L12.61-9.31L9.19-9.31Q9.15-10.61 8.54-11.17Q7.92-11.74 6.66-11.74L6.66-11.74Q5.38-11.74 4.79-10.78Q4.19-9.82 4.16-7.72L4.16-7.72L4.16-6.72Q4.16-4.44 4.73-3.47Q5.30-2.49 6.70-2.49L6.70-2.49Q7.88-2.49 8.51-3.05Q9.13-3.60 9.17-4.81L9.17-4.81ZM21.11-7.47L21.14-7.49Q20.57-8.31 20.24-9.05Q19.91-9.79 19.91-10.59L19.91-10.59Q19.91-12.30 21.03-13.36Q22.14-14.42 23.94-14.42L23.94-14.42Q25.55-14.42 26.60-13.44Q27.66-12.46 27.66-11.01L27.66-11.01Q27.66-9.19 25.65-7.78L25.65-7.78L24.91-7.27L27.10-4.76Q27.64-5.83 27.64-7.11L27.64-7.11L30.40-7.11Q30.40-4.23 29.07-2.49L29.07-2.49L31.24 0L27.57 0L26.90-0.75Q26.08-0.26 25.23-0.03Q24.38 0.21 23.30 0.21L23.30 0.21Q21.19 0.21 19.92-0.90Q18.65-2.01 18.65-3.82L18.65-3.82Q18.65-4.80 19.16-5.61Q19.66-6.41 21.11-7.47L21.11-7.47ZM23.52-2.33L23.52-2.33Q24.38-2.33 25.16-2.73L25.16-2.73L22.60-5.64L22.51-5.59Q21.95-4.90 21.95-4.04L21.95-4.04Q21.95-3.33 22.40-2.83Q22.85-2.33 23.52-2.33ZM22.75-10.63L22.75-10.63Q22.75-9.94 23.50-8.96L23.50-8.96L24.15-9.38Q24.60-9.67 24.80-9.98Q25.01-10.29 25.01-10.77L25.01-10.77Q25.01-11.22 24.70-11.55Q24.38-11.88 23.93-11.88L23.93-11.88Q23.38-11.88 23.07-11.54Q22.75-11.19 22.75-10.63ZM45.73-4.81L49.14-4.81Q49.07-3.33 48.34-2.19Q47.61-1.05 46.28-0.43Q44.96 0.20 43.26 0.20L43.26 0.20Q40.46 0.20 38.85-1.63Q37.24-3.46 37.24-6.79L37.24-6.79L37.24-7.49Q37.24-9.58 37.96-11.15Q38.69-12.71 40.06-13.57Q41.43-14.42 43.22-14.42L43.22-14.42Q45.81-14.42 47.38-13.06Q48.96-11.70 49.17-9.31L49.17-9.31L45.75-9.31Q45.71-10.61 45.10-11.17Q44.48-11.74 43.22-11.74L43.22-11.74Q41.94-11.74 41.35-10.78Q40.75-9.82 40.72-7.72L40.72-7.72L40.72-6.72Q40.72-4.44 41.29-3.47Q41.87-2.49 43.26-2.49L43.26-2.49Q44.44-2.49 45.07-3.05Q45.69-3.60 45.73-4.81L45.73-4.81Z"></path></g></g></svg>